<svg stroke="black" stroke-width="2" xmlns="http://www.w3.org/2000/svg" enable-background="new 0 0 80 80" viewBox="0 0 80 80"><path d="M70.5,5h-31C37.0185547,5,35,7.0185547,35,9.5V35H9.5C7.0185547,35,5,37.0185547,5,39.5v31
	C5,72.9814453,7.0185547,75,9.5,75h59.3330078C72.2333984,75,75,72.2338867,75,68.8334961V9.5C75,7.0185547,72.9814453,5,70.5,5z
	 M71,68.8334961C71,70.0283203,70.0283203,71,68.8330078,71H9.5C9.2246094,71,9,70.7758789,9,70.5v-31
	C9,39.2241211,9.2246094,39,9.5,39H37c1.1044922,0,2-0.8955078,2-2V9.5C39,9.2241211,39.2246094,9,39.5,9h31
	C70.7753906,9,71,9.2241211,71,9.5V68.8334961z"/><path  d="M55,24c-1.1044922,0-2,0.8955078-2,2v27.5H27.1005859l3.4082031-3.4082031c0.78125-0.7807617,0.78125-2.0473633,0-2.828125
	c-0.78125-0.78125-2.046875-0.78125-2.828125,0l-6.8210449,6.8209839c-0.0932617,0.0932007-0.1768799,0.196106-0.2504883,0.3062744
	c-0.0327148,0.0488281-0.0549316,0.1017456-0.0828857,0.1526489c-0.03479,0.0632935-0.072998,0.1243286-0.1008301,0.1915894
	c-0.0272217,0.0656738-0.0428467,0.1342163-0.0626221,0.2019043c-0.0169678,0.057251-0.0390625,0.1119995-0.0507812,0.1712646
	c-0.0515137,0.2585449-0.0515137,0.5247803,0,0.7833252c0.0117188,0.0592651,0.0338135,0.1140137,0.0507812,0.1712646
	c0.0197754,0.067688,0.0354004,0.1362305,0.0626221,0.2019043c0.027832,0.0672607,0.06604,0.1282959,0.1008301,0.1915894
	c0.0279541,0.0509033,0.0501709,0.1038208,0.0828857,0.1526489c0.0736084,0.1101685,0.1572266,0.2130737,0.2504883,0.3062744
	l6.8210449,6.8209839c0.390625,0.390625,0.9023438,0.5859375,1.4140625,0.5859375s1.0234375-0.1953125,1.4140625-0.5859375
	c0.78125-0.7807617,0.78125-2.0473633,0-2.828125L27.1005859,57.5H55c1.1044922,0,2-0.8955078,2-2V26
	C57,24.8955078,56.1044922,24,55,24z"/></svg>